<?xml version="1.0" encoding="utf-8"?>
<!-- Generator: Adobe Illustrator 18.0.0, SVG Export Plug-In . SVG Version: 6.00 Build 0)  -->
<!DOCTYPE svg PUBLIC "-//W3C//DTD SVG 1.1//EN" "http://www.w3.org/Graphics/SVG/1.1/DTD/svg11.dtd">
<svg version="1.1" id="Capa_1" xmlns="http://www.w3.org/2000/svg" xmlns:xlink="http://www.w3.org/1999/xlink" x="0px" y="0px"
	 viewBox="0 0 10 10" enable-background="new 0 0 10 10" xml:space="preserve" height="10" width="10">
<path fill="#c3c3d1" d="M5,5.1L1.9,1.9C1.7,1.8,1.5,1.7,1.3,1.7S0.9,1.8,0.7,1.9L0.2,2.4C0.1,2.6,0,2.8,0,3c0,0.2,0.1,0.4,0.2,0.6l4.2,4.2
	C4.6,7.9,4.8,8,5,8s0.4-0.1,0.6-0.2l4.2-4.2C9.9,3.4,10,3.2,10,3c0-0.2-0.1-0.4-0.2-0.6L9.3,1.9C9.1,1.8,8.9,1.7,8.7,1.7
	c-0.2,0-0.4,0.1-0.6,0.2L5,5.1z"/>
</svg>
