<?xml version="1.0" encoding="utf-8"?>
<!-- Generator: Adobe Illustrator 18.0.0, SVG Export Plug-In . SVG Version: 6.00 Build 0)  -->
<!DOCTYPE svg PUBLIC "-//W3C//DTD SVG 1.1//EN" "http://www.w3.org/Graphics/SVG/1.1/DTD/svg11.dtd">
<svg version="1.1"
	 id="svg3001" xmlns:cc="http://creativecommons.org/ns#" xmlns:rdf="http://www.w3.org/1999/02/22-rdf-syntax-ns#" xmlns:inkscape="http://www.inkscape.org/namespaces/inkscape" xmlns:svg="http://www.w3.org/2000/svg" xmlns:sodipodi="http://sodipodi.sourceforge.net/DTD/sodipodi-0.dtd" xmlns:dc="http://purl.org/dc/elements/1.1/" inkscape:version="0.48.3.1 r9886" sodipodi:docname="cloud_upload_font_awesome.svg"
	 xmlns="http://www.w3.org/2000/svg" xmlns:xlink="http://www.w3.org/1999/xlink" x="0px" y="0px" viewBox="0 0 16 16"
	 enable-background="new 0 0 16 16" xml:space="preserve" height="16" width="16">
<sodipodi:namedview  inkscape:cx="960" inkscape:cy="896" gridtolerance="10" borderopacity="1" id="namedview3007" bordercolor="#666666" objecttolerance="10" inkscape:zoom="0.13169643" showgrid="false" guidetolerance="10" pagecolor="#ffffff" inkscape:current-layer="svg3001" inkscape:window-maximized="0" inkscape:window-y="25" inkscape:window-x="0" inkscape:window-height="16" inkscape:window-width="16" inkscape:pageopacity="0" inkscape:pageshadow="2">
	</sodipodi:namedview>
<g id="g3003" transform="matrix(1,0,0,-1,22.779661,1428.2373)">
	<path fill="#a94442" id="path3005" inkscape:connector-curvature="0" d="M-12.1,1420c0,0.1,0,0.1-0.1,0.2l-2.9,2.9c-0.1,0-0.1,0.1-0.2,0.1
		s-0.1,0-0.2-0.1l-2.9-2.9c-0.1-0.1-0.1-0.1-0.1-0.2s0-0.1,0.1-0.2c0-0.1,0.1-0.1,0.2-0.1h1.9v-2.9c0-0.1,0-0.1,0.1-0.2
		s0.1-0.1,0.2-0.1h1.6c0.1,0,0.1,0,0.2,0.1c0.1,0.1,0.1,0.1,0.1,0.2v2.9h1.9c0.1,0,0.1,0,0.2,0.1
		C-12.1,1419.9-12.1,1419.9-12.1,1420z M-6.8,1417.6c0-0.9-0.3-1.6-0.9-2.3s-1.4-0.9-2.3-0.9h-9c-1,0-1.9,0.4-2.6,1.1
		s-1.1,1.6-1.1,2.6c0,0.7,0.2,1.4,0.6,2s0.9,1.1,1.6,1.4c0,0.2,0,0.3,0,0.4c0,1.2,0.4,2.2,1.2,3s1.8,1.2,3,1.2
		c0.9,0,1.7-0.2,2.4-0.7s1.2-1.1,1.6-1.9c0.4,0.3,0.9,0.5,1.4,0.5c0.6,0,1.1-0.2,1.5-0.6s0.6-0.9,0.6-1.5c0-0.4-0.1-0.8-0.3-1.1
		c0.7-0.2,1.3-0.5,1.8-1.1C-7,1419-6.8,1418.3-6.8,1417.6z"/>
</g>
</svg>
